<svg xmlns="http://www.w3.org/2000/svg" version="1.1" viewBox="-5.0 -10.0 110.0 135.0">
 <path d="m10.699 77.441 11.859 11.859c0.94141 0.92969 2.4688 0.92969 3.4102 0l24.031-24.039 24.031 24.039c0.46875 0.46875 1.0898 0.69922 1.7109 0.69922 0.62109 0 1.2305-0.23047 1.7109-0.69922l11.848-11.859c0.92969-0.94141 0.92969-2.4688 0-3.4102l-24.031-24.031 24.031-24.031c0.92969-0.94141 0.92969-2.4688 0-3.4102l-11.859-11.859c-0.94141-0.92969-2.4688-0.92969-3.4102 0l-24.031 24.039-24.031-24.039c-0.94141-0.92969-2.4688-0.92969-3.4102 0l-11.859 11.859c-0.92969 0.94141-0.92969 2.4688 0 3.4102l24.031 24.031-24.031 24.031c-0.92969 0.9375-0.92969 2.4688 0 3.4102z"/>
</svg>