<svg xmlns="http://www.w3.org/2000/svg" version="1.1" viewBox="-5.0 -10.0 110.0 135.0">
 <path d="m87.109 30.48c-0.23828-0.10938-2.3398-1.0508-7.8516-2.2109v-2.9688c0-0.96094-0.67969-1.7812-1.6211-1.9609-0.53125-0.10156-12.922-2.3711-28.602 6.5391-15.68-8.9102-28.07-6.6406-28.602-6.5391-0.94141 0.17969-1.6211 1.0117-1.6211 1.9609v2.9688c-5.5117 1.1719-7.6094 2.1094-7.8516 2.2188-0.69922 0.32812-1.1484 1.0391-1.1484 1.8086v49.711c0 0.73828 0.41016 1.4297 1.0703 1.7695 0.28906 0.14844 0.60938 0.23047 0.92969 0.23047 0.39844 0 0.80078-0.12109 1.1406-0.35937 16.051-11.16 35.039-1.9492 35.23-1.8516 0.62109 0.30859 1.3516 0.28125 1.9414-0.089844 0.039062-0.019531 0.058594-0.050781 0.10156-0.078125 2.6484-1.1914 20.02-8.3086 34.871 2.0195 0.33984 0.23828 0.73828 0.35937 1.1406 0.35937 0.32031 0 0.64062-0.078124 0.92969-0.23047 0.66016-0.35156 1.0703-1.0312 1.0703-1.7695v-49.711c0-0.78125-0.44922-1.4805-1.1484-1.8086zm-73.27 47.93v-44.73c0.96094-0.32031 2.5703-0.78906 5-1.3281v37.578c0 1.1016 0.89844 2 2 2 5.7891 0 10.672 0.98828 14.609 2.3398-6.3711-0.64062-14.078 0-21.609 4.1406zm33.281-2.7695c-4.2695-3-12.352-7.2383-24.281-7.6797v-40.883c3.6719-0.25 13.16-0.078125 24.422 6.3711l-0.14062 42.199zm4.1406-42.422c11.078-6.2188 20.391-6.3789 24-6.1406v40.891c-11.828 0.42969-19.84 4.5898-24.148 7.5898l0.14062-42.34zm33.008 45.191c-7.5117-4.1406-15.211-4.7695-21.559-4.1406 3.9414-1.3398 8.7812-2.3281 14.559-2.3281 1.1016 0 2-0.89844 2-2v-37.578c2.4297 0.53906 4.0391 1.0117 5 1.3281v44.73z"/>
</svg>