<svg xmlns="http://www.w3.org/2000/svg" xmlns:xlink="http://www.w3.org/1999/xlink" version="1.1" x="0px" y="0px" viewBox="0 0 90 112.5" style="enable-background:new 0 0 90 90;" xml:space="preserve"><path d="M63.041016,63.070313c0.212891,0.358398,0.539551,0.765625,0.92041,1.147461  c0.936523,0.93457,1.628418,1.242188,2.134277,1.242188c0.352051,0,0.61377-0.149414,0.804199-0.339844l3.288574-3.288086  l3.288086,3.288086c0.463379,0.463867,1.349609,0.682617,2.938965-0.90332c1.588379-1.587891,1.367676-2.474609,0.90332-2.939453  l-3.288086-3.288086l3.288086-3.288086c0.464355-0.464844,0.685059-1.351563-0.90332-2.939453  c-0.380371-0.380859-0.787598-0.707031-1.146484-0.919922c-0.971191-0.576172-1.541016-0.236328-1.79248,0.016602  l-3.288086,3.288086l-3.288574-3.288086c-0.464355-0.464844-1.351563-0.68457-2.938965,0.90332  c-0.380371,0.380859-0.707031,0.788086-0.919922,1.146484c-0.574707,0.970703-0.236328,1.540039,0.016602,1.792969  l3.288086,3.288086l-3.288086,3.288086C62.804688,61.530273,62.466309,62.099609,63.041016,63.070313z M68.466797,58.696289  c0.390625-0.390625,0.390625-1.023438,0-1.414063l-3.564453-3.564453c0.109863-0.148438,0.266113-0.334961,0.472656-0.541992  s0.393555-0.362305,0.541992-0.472656l3.564453,3.564453c0.390625,0.390625,1.023438,0.390625,1.414063,0l3.564453-3.564453  c0.147949,0.110352,0.334961,0.266602,0.541504,0.472656c0.206543,0.207031,0.362793,0.393555,0.472656,0.541992l-3.564453,3.564453  c-0.390625,0.390625-0.390625,1.023438,0,1.414063l3.564453,3.564453c-0.109863,0.148438-0.265625,0.334961-0.472168,0.541016  c-0.207031,0.207031-0.394043,0.363281-0.54248,0.472656l-3.563965-3.563477c-0.390625-0.390625-1.023438-0.390625-1.414063,0  l-3.564453,3.563477c-0.148438-0.109375-0.334961-0.265625-0.541992-0.47168  c-0.206543-0.207031-0.362793-0.393555-0.472656-0.541992L68.466797,58.696289z"/><path d="M6.946289,16.023438c-0.282715,0.18457-0.453125,0.499023-0.453125,0.836914v48.543945  c0,0.396484,0.234863,0.755859,0.598145,0.916016l31.347656,13.750977c0.002136,0.000916,0.004517,0.000488,0.006653,0.001404  c0.12146,0.052368,0.254517,0.082581,0.395203,0.082581s0.273743-0.030212,0.395203-0.082581  c0.002136-0.000916,0.004517-0.000488,0.006653-0.001404l24.20282-10.616455c1.980713,1.169434,4.280884,1.852783,6.742981,1.852783  c7.34375,0,13.318359-5.974609,13.318359-13.318359c0-7.006226-5.441528-12.752991-12.318359-13.2677V16.860352  c0-0.337891-0.17041-0.652344-0.453125-0.836914c-0.282227-0.18457-0.637695-0.211914-0.94873-0.079102l-1.652893,0.725098  c-5.72522-0.932739-9.278809-4.4151-9.314392-4.450684c-0.378906-0.378906-0.989258-0.392578-1.384277-0.030273L38.868347,29.22998  L19.639648,10.134766c-0.248535-0.24707-0.611816-0.34082-0.950684-0.256836  c-0.340332,0.085938-0.611328,0.347656-0.712891,0.683594c-0.059143,0.195251-1.515747,4.734558-8.137329,6.235535  L7.89502,15.944336C7.584961,15.810547,7.228516,15.837891,6.946289,16.023438z M70.188477,46.670898  c6.240723,0,11.318359,5.077148,11.318359,11.318359s-5.077637,11.318359-11.318359,11.318359  c-6.241211,0-11.318848-5.077148-11.318848-11.318359S63.947266,46.670898,70.188477,46.670898z M58.121094,14.273438  c1.129028,0.937622,3.555664,2.664734,6.982788,3.72522l-21.151917,9.279541L58.121094,14.273438z M39.84082,31.26593  l29.347656-12.875305v26.330933c-3.84314,0.287598-7.230957,2.207458-9.477417,5.07312l-14.059204,6.167236  c-0.505371,0.22168-0.73584,0.811523-0.513672,1.317383c0.164063,0.375,0.53125,0.598633,0.916016,0.598633  c0.134277,0,0.270508-0.027344,0.401367-0.083984l11.489441-5.039978c-0.690369,1.608154-1.075378,3.377197-1.075378,5.235291  c0,0.341431,0.025879,0.676514,0.05127,1.011536l-11.269043,4.943542c-0.505859,0.22168-0.73584,0.811523-0.513672,1.317383  c0.164063,0.375,0.53125,0.598633,0.916016,0.598633c0.134277,0,0.270508-0.027344,0.401367-0.083984l10.782166-4.72998  c0.659851,2.793823,2.195374,5.24884,4.308411,7.057007L39.84082,77.624817V31.26593z M19.253418,12.570313L34.329346,27.54126  l-21.666565-9.505249C16.486816,16.565186,18.387329,14.126221,19.253418,12.570313z M8.493164,18.390625L37.84082,31.26593  v46.358887L8.493164,64.750977V18.390625z"/><path d="M45.506836,49.732422c0.165039,0.108398,0.355469,0.163086,0.546875,0.163086c0.13623,0,0.272949-0.02832,0.401855-0.083984  l17.718262-7.772461c0.363281-0.160156,0.598145-0.519531,0.598145-0.916016v-7.982422  c0-0.337891-0.17041-0.652344-0.453125-0.836914c-0.282227-0.185547-0.637695-0.212891-0.94873-0.079102L45.651855,39.99707  c-0.363281,0.160156-0.598145,0.519531-0.598145,0.916016v7.982422C45.053711,49.233398,45.224121,49.547852,45.506836,49.732422z   M47.053711,41.566406l15.718262-6.895508v5.798828l-15.718262,6.895508V41.566406z"/></svg>