<svg xmlns="http://www.w3.org/2000/svg" version="1.1" viewBox="-5.0 -10.0 110.0 135.0">
 <path d="m56.25 7.8125h-12.5c-5.1719 0-9.375 4.2031-9.375 9.375v1.5625h-10.938c-5.1719 0-9.375 4.2031-9.375 9.375v6.25c0 1.7266 1.3984 3.125 3.125 3.125h1.8203l3.9531 46.113c0.41797 4.8867 4.4336 8.5742 9.3398 8.5742h35.398c4.9062 0 8.9219-3.6875 9.3398-8.5742l3.9531-46.113h1.8203c1.7266 0 3.125-1.3984 3.125-3.125v-7.8125c0-4.3086-3.5039-7.8125-7.8125-7.8125h-12.5v-1.5625c0-5.1719-4.2031-9.375-9.375-9.375zm-15.625 9.375c0-1.7227 1.4023-3.125 3.125-3.125h12.5c1.7227 0 3.125 1.4023 3.125 3.125v1.5625h-18.75zm30.188 65.891c-0.14062 1.6289-1.4766 2.8594-3.1133 2.8594h-35.398c-1.6367 0-2.9727-1.2266-3.1133-2.8594l-3.9062-45.578h49.441l-3.9062 45.578zm8.875-56.516v4.6875h-59.375v-3.125c0-1.7227 1.4023-3.125 3.125-3.125h54.688c0.85938 0 1.5625 0.69922 1.5625 1.5625z"/>
 <path d="m37.496 76.562c0.066406 0 0.13281 0 0.19922-0.007812 1.7227-0.10938 3.0312-1.5938 2.9219-3.3125l-1.5625-25c-0.10938-1.7227-1.5781-3.0469-3.3125-2.9219-1.7227 0.10938-3.0312 1.5938-2.9219 3.3125l1.5625 25c0.10156 1.6562 1.4805 2.9297 3.1172 2.9297z"/>
 <path d="m50 76.562c1.7266 0 3.125-1.3984 3.125-3.125v-25c0-1.7266-1.3984-3.125-3.125-3.125s-3.125 1.3984-3.125 3.125v25c0 1.7266 1.3984 3.125 3.125 3.125z"/>
 <path d="m62.305 76.555c0.066406 0.003906 0.13281 0.007812 0.19922 0.007812 1.6367 0 3.0117-1.2734 3.1172-2.9297l1.5625-25c0.10938-1.7227-1.2031-3.207-2.9219-3.3125-1.75-0.125-3.207 1.2031-3.3125 2.9219l-1.5625 25c-0.10938 1.7227 1.2031 3.207 2.9219 3.3125z"/>
</svg>