<svg xmlns="http://www.w3.org/2000/svg" xmlns:xlink="http://www.w3.org/1999/xlink" version="1.1" x="0px" y="0px" viewBox="0 0 90 112.5" style="enable-background:new 0 0 90 90;" xml:space="preserve"><path d="M21.766602,79.324219H62.375c0.552734,0,1-0.447266,1-1v-2.032104c6.876831-0.514709,12.318359-6.261475,12.318359-13.2677  S70.251831,50.271423,63.375,49.756714V15.044922c0-0.552734-0.447266-1-1-1h-4.726563v-2.369141c0-0.552734-0.447266-1-1-1  H41.379883c-0.552734,0-1,0.447266-1,1v2.369141H21.766602c-4.113281,0-7.459961,3.34668-7.459961,7.460938v50.357422  C14.306641,75.977539,17.65332,79.324219,21.766602,79.324219z M73.693359,63.024414  c0,6.241211-5.077148,11.318359-11.318359,11.318359s-11.318359-5.077148-11.318359-11.318359S56.133789,51.706055,62.375,51.706055  S73.693359,56.783203,73.693359,63.024414z M42.379883,12.675781h13.268555V15.0401c0,0.001709-0.000977,0.003113-0.000977,0.004822  s0.000977,0.003113,0.000977,0.004822v14.717834l-5.938477-5.768555c-0.193359-0.188477-0.445313-0.282227-0.696289-0.282227  S48.510742,23.811523,48.316406,24l-5.936523,5.767578V12.675781z M16.306641,21.505859  c0-3.010742,2.449219-5.460938,5.459961-5.460938h18.613281v16.087891c0,0.401367,0.240234,0.764648,0.610352,0.920898  c0.125977,0.053711,0.257813,0.079102,0.389648,0.079102c0.254883,0,0.506836-0.097656,0.697266-0.283203l6.936523-6.738281  l6.938477,6.739258c0.287109,0.279297,0.71582,0.359375,1.085938,0.203125s0.610352-0.519531,0.610352-0.920898V16.044922H61.375  v33.711792c-6.876831,0.514709-12.318359,6.261475-12.318359,13.2677c0,0.323364,0.025757,0.64032,0.048523,0.958008H21.766602  c-2.156677,0-4.09668,0.925598-5.459961,2.393921V21.505859z M16.306641,71.443359c0-3.010742,2.449219-5.460938,5.459961-5.460938  H49.39917c0.215576,0.945496,0.534851,1.849426,0.940186,2.707031H22.71582c-0.552734,0-1,0.447266-1,1s0.447266,1,1,1h28.78595  c0.602966,0.852844,1.304626,1.628296,2.086426,2.317383H22.71582c-0.552734,0-1,0.447266-1,1s0.447266,1,1,1h33.883789  c1.464783,0.708984,3.073853,1.157898,4.775391,1.285278v1.032104H21.766602c-3.010742,0-5.459961-2.450195-5.459961-5.460938  V71.443359z"/><path d="M54.40332,62.733398l5.154297,7.106445c0.177734,0.244141,0.455078,0.395508,0.756836,0.412109  c0.017578,0.000977,0.035156,0.000977,0.052734,0.000977c0.282227,0,0.552734-0.119141,0.743164-0.331055l9.155273-10.163086  c0.191406-0.211914,0.575195-0.80957,0.021484-1.77832c-0.21582-0.37793-0.557617-0.787109-0.962891-1.151367  c-0.362305-0.326172-1.28125-1.05957-2.144531-1.03125c-0.342773,0.017578-0.650391,0.160156-0.867188,0.401367l-5.582031,6.197266  l-2.020508-2.786133c-0.166992-0.230469-0.670898-0.735352-1.735352-0.392578  c-0.414063,0.131836-0.884766,0.380859-1.326172,0.701172C54.320313,60.881836,53.84375,61.959961,54.40332,62.733398z   M56.822266,61.538086c0.220703-0.160156,0.417969-0.269531,0.569336-0.339844l2.445313,3.37207  c0.177734,0.244141,0.455078,0.395508,0.756836,0.412109c0.303711,0.021484,0.59375-0.105469,0.795898-0.330078l6.066406-6.735352  c0.142578,0.084961,0.327148,0.214844,0.529297,0.397461c0.000977,0.000977,0.000977,0.000977,0.000977,0.000977  c0.203125,0.182617,0.351563,0.352539,0.450195,0.485352l-7.985352,8.865234l-4.12793-5.692383  C56.435547,61.851563,56.601563,61.698242,56.822266,61.538086z"/></svg>